<svg width="61" height="60" viewBox="0 0 61 60" fill="none" xmlns="http://www.w3.org/2000/svg">
<path d="M17.4682 21.942C15.8026 23.6058 14.4946 25.905 13.8136 28.5972C12.1966 34.9956 14.7388 41.1894 19.8099 42.4896C19.8381 42.4968 19.8664 42.5028 19.8952 42.51L19.8946 42.5112L24.3292 43.6482L24.337 43.6176C29.2467 44.5038 34.3461 40.4418 35.9061 34.2702C37.4661 28.0992 34.9155 22.0758 30.1827 20.4894L30.1857 20.4774L29.9385 20.4138C29.8431 20.3856 29.7489 20.3556 29.6517 20.3304C29.5545 20.3052 29.458 20.2866 29.3608 20.2656L25.7505 19.3398L25.7499 19.341C25.7217 19.3332 25.6941 19.3254 25.6659 19.3182C23.9686 18.8832 22.2603 19.062 20.6788 19.7322" fill="#EDBE00"/>
<path d="M25.6909 44.3388C25.2619 44.3388 24.8317 44.3058 24.4015 44.2374C24.3283 44.25 24.2533 44.2488 24.1801 44.2296L19.7455 43.092C19.7353 43.089 19.7257 43.0866 19.7161 43.083L19.6549 43.0686C14.3299 41.7036 11.5057 35.2812 13.2319 28.4496C13.9231 25.7148 15.2413 23.3178 17.0443 21.5172C17.2783 21.2826 17.6587 21.2826 17.8927 21.5172C18.1267 21.7518 18.1267 22.1316 17.8921 22.3656C16.2427 24.0138 15.0337 26.2188 14.3959 28.7436C12.8335 34.9254 15.2773 40.707 19.9591 41.9076C19.9873 41.9148 20.0149 41.9238 20.0425 41.9352L20.0437 41.9292L24.2983 43.02C24.3469 43.0158 24.3943 43.0176 24.4435 43.0266C29.0683 43.8612 33.8509 39.951 35.3239 34.1232C36.7975 28.293 34.4551 22.5546 29.9917 21.0582C29.9671 21.0498 29.9431 21.0402 29.9203 21.0288L29.7895 20.9952C29.7805 20.9928 29.7175 20.9742 29.7091 20.9712C29.6413 20.9508 29.5735 20.9304 29.5045 20.9124C29.4391 20.895 29.3767 20.8818 29.3143 20.8692L29.2339 20.8524L25.6465 19.9326C25.6291 19.9296 25.6111 19.9254 25.5943 19.9206L25.6657 19.3278L25.6645 19.3272L25.5181 19.8996C24.0115 19.5132 22.4191 19.647 20.9137 20.2854C20.6077 20.415 20.2561 20.2722 20.1271 19.9668C19.9981 19.662 20.1403 19.3098 20.4457 19.1802C22.1959 18.4392 24.0529 18.2868 25.8163 18.7374C25.8199 18.7386 25.8535 18.7476 25.8679 18.7512C25.8793 18.7536 25.8901 18.756 25.9009 18.759L29.5621 19.6956C29.6431 19.7124 29.7241 19.7298 29.8039 19.7508C29.8879 19.7718 29.9737 19.7982 30.0595 19.824L30.3349 19.8966C30.3913 19.911 30.4435 19.9332 30.4909 19.9608C35.4697 21.714 38.1019 28.0326 36.4885 34.4178C35.0119 40.2582 30.4429 44.3388 25.6909 44.3388Z" fill="#1F212B"/>
<path d="M24.5188 44.0826L19.7104 42.8496C19.7062 42.8484 19.7026 42.8472 19.6984 42.8466L19.5256 42.8022L19.5262 42.7998C14.4742 41.3742 11.8294 35.1822 13.495 28.5924L14.077 28.7388C12.4738 35.0832 15.013 41.0256 19.8568 42.2676L20.2096 42.3486L20.2084 42.3582L24.0844 43.3512L24.4276 41.994L24.5716 41.9382C27.8782 40.6542 30.5716 37.3266 31.6012 33.2538C32.6308 29.1804 31.8442 24.9594 29.5492 22.2384L29.4496 22.1208L29.7928 20.7624L25.9402 19.7748V19.7784L25.645 19.701L25.6774 19.3998L25.4314 19.338L25.5046 19.0452L25.7104 19.0974V19.0968L25.7974 19.119L30.5218 20.3304L30.1072 21.9708C32.4484 24.8394 33.2446 29.202 32.1832 33.4008C31.1212 37.6002 28.3516 41.0478 24.9334 42.4398L24.5188 44.0826Z" fill="#1F212B"/>
<path d="M23.7681 43.5702C18.6969 42.27 15.8973 36.0294 17.5143 29.631C19.1313 23.2326 24.5529 19.0998 29.6241 20.4C34.6953 21.7002 37.4949 27.9408 35.8779 34.3392C34.2609 40.7376 28.8393 44.8704 23.7681 43.5702Z" fill="#EDBE00"/>
<path d="M25.6807 44.1132C25.0141 44.1132 24.3493 44.0292 23.6935 43.8612C18.4705 42.5226 15.5683 36.1056 17.2231 29.5578C18.1417 25.923 20.2969 22.8708 23.1361 21.1842C25.2571 19.9242 27.5257 19.5522 29.6989 20.1096C34.9219 21.4482 37.8241 27.8652 36.1693 34.413C35.2507 38.0478 33.0955 41.1 30.2563 42.7866C28.7755 43.6656 27.2227 44.1132 25.6807 44.1132ZM27.7141 20.4588C26.2783 20.4588 24.8281 20.8764 23.4427 21.6996C20.7397 23.3058 18.6847 26.2236 17.8051 29.7042C16.2307 35.9328 18.9397 42.0222 23.8423 43.2798C25.8571 43.7964 27.9685 43.4472 29.9497 42.2706C32.6527 40.6644 34.7077 37.7466 35.5873 34.266C37.1617 28.0374 34.4527 21.948 29.5501 20.6904C28.9441 20.5356 28.3303 20.4588 27.7141 20.4588Z" fill="#1F212B"/>
<path d="M22.0941 38.5926C21.9981 38.5926 21.9045 38.547 21.8463 38.4618C21.7887 38.3772 21.7725 38.3502 21.7419 38.298L21.6981 38.2236C21.6129 38.0814 21.6597 37.8972 21.8013 37.812C21.9441 37.7256 22.1277 37.773 22.2129 37.9152L22.2603 37.9962C22.2843 38.037 22.2963 38.0586 22.3407 38.1234C22.4343 38.2602 22.3995 38.4468 22.2627 38.5404C22.2117 38.5758 22.1529 38.5926 22.0941 38.5926Z" fill="#1F212B"/>
<path d="M26.0671 40.9764C25.6789 40.9764 25.2943 40.9284 24.9169 40.8318C23.9293 40.5786 23.0329 39.99 22.3243 39.1296C22.2193 39.0018 22.2373 38.8128 22.3651 38.7078C22.4935 38.6016 22.6819 38.6208 22.7875 38.7486C23.4229 39.5202 24.1891 40.026 25.0651 40.2504C26.1943 40.5402 27.4069 40.3266 28.5739 39.633C30.4855 38.4966 32.0323 36.2154 32.7115 33.5292C33.8485 29.0322 32.2663 24.7308 29.1859 23.9412C28.0561 23.652 26.8435 23.865 25.6765 24.5586C23.7649 25.695 22.2187 27.9762 21.5401 30.6624C21.3205 31.5306 21.1975 32.4096 21.1759 33.2748C21.1525 34.1784 21.2383 35.0514 21.4309 35.8686C21.4687 36.03 21.3685 36.1914 21.2077 36.2292C21.0457 36.2688 20.8849 36.1668 20.8465 36.006C20.6425 35.139 20.5513 34.215 20.5759 33.2598C20.5993 32.3502 20.7277 31.4268 20.9587 30.516C21.6757 27.6786 23.3251 25.2594 25.3705 24.0438C26.6779 23.2668 28.0489 23.031 29.3353 23.3604C32.7355 24.2322 34.5115 28.86 33.2941 33.6762C32.5771 36.5136 30.9271 38.934 28.8817 40.149C27.9577 40.6974 27.0025 40.9764 26.0671 40.9764Z" fill="#1F212B"/>
<path d="M13.7859 28.6656L17.4867 29.7258L13.7859 28.6656Z" fill="white"/>
<path d="M17.4872 30.0258C17.4596 30.0258 17.432 30.0222 17.4044 30.0138L13.7036 28.9536C13.544 28.908 13.4522 28.7418 13.4978 28.5828C13.5428 28.4232 13.7084 28.329 13.8686 28.377L17.5694 29.4372C17.729 29.4828 17.8208 29.649 17.7752 29.808C17.7374 29.94 17.6174 30.0258 17.4872 30.0258Z" fill="#1F212B"/>
<path d="M15.9126 23.9088L19.614 24.969L15.9126 23.9088Z" fill="white"/>
<path d="M19.6141 25.269C19.5865 25.269 19.5589 25.2654 19.5313 25.257L15.8305 24.1962C15.6709 24.1506 15.5791 23.9844 15.6247 23.8254C15.6703 23.6652 15.8371 23.5722 15.9955 23.6196L19.6963 24.6804C19.8559 24.726 19.9477 24.8922 19.9021 25.0512C19.8649 25.1838 19.7443 25.269 19.6141 25.269Z" fill="#1F212B"/>
<path d="M13.4253 33.9288L17.1261 34.989L13.4253 33.9288Z" fill="white"/>
<path d="M17.1266 35.289C17.099 35.289 17.0714 35.2854 17.0438 35.277L13.343 34.2168C13.1834 34.1712 13.0916 34.005 13.1372 33.846C13.1822 33.6864 13.3484 33.5916 13.508 33.6402L17.2088 34.7004C17.3684 34.746 17.4602 34.9122 17.4146 35.0712C17.3768 35.2032 17.2568 35.289 17.1266 35.289Z" fill="#1F212B"/>
<path d="M39.0136 43.2102L38.9596 41.499C42.07 39.138 44.0818 34.7718 43.9264 29.8338C43.771 24.8958 41.4886 20.6496 38.2354 18.4668L38.1814 16.7556L33.1132 16.8972V16.899C33.0808 16.8996 33.049 16.899 33.0166 16.9002C27.2212 17.0622 22.9972 23.0874 23.227 30.393C23.4568 37.6986 28.0522 43.5174 33.8482 43.3554C33.8806 43.3542 33.9124 43.3524 33.9448 43.3512V43.353L39.0136 43.2102Z" fill="#EDBE00"/>
<path d="M33.6447 43.6614V43.6584C33.6327 43.6584 33.6213 43.6584 33.6093 43.6584C27.8343 43.659 23.1627 37.8942 22.9269 30.402C22.7931 26.1552 24.1323 22.2168 26.6007 19.5978C28.3851 17.7036 30.6009 16.6668 33.0081 16.5996L33.1131 16.8984L33.1047 16.5984L38.4717 16.4472L38.5305 18.3048C41.8977 20.637 44.0757 25.0338 44.2263 29.8242C44.3763 34.6146 42.4779 39.126 39.2637 41.643L39.3219 43.5012L33.6447 43.6614ZM37.8915 17.064L33.0453 17.1996C30.7815 17.2626 28.7109 18.2346 27.0381 20.01C24.6783 22.5138 23.3991 26.2956 23.5269 30.384C23.7555 37.6458 28.3089 43.2252 33.8397 43.0554L34.1481 43.0464L38.7039 42.9192L38.6547 41.3544L38.7783 41.2608C41.9151 38.8788 43.7733 34.5042 43.6269 29.844C43.4799 25.1826 41.3505 20.919 38.0685 18.7164L37.9407 18.6306L37.8915 17.064Z" fill="#1F212B"/>
<path d="M38.4009 43.2168C32.6055 43.3788 27.7209 37.5882 27.4911 30.2832C27.2613 22.9782 31.7739 16.9242 37.5693 16.7622C43.3647 16.6002 48.2493 22.3908 48.4791 29.6958C48.7083 37.0008 44.1963 43.0548 38.4009 43.2168Z" fill="#EDBE00"/>
<path d="M38.1646 43.5204C32.3206 43.5204 27.4228 37.6488 27.1912 30.2922C27.061 26.1516 28.4212 22.2534 30.9238 19.5972C32.7916 17.6154 35.0866 16.5312 37.5604 16.4616C43.5232 16.3056 48.544 22.2276 48.778 29.6856C48.9082 33.8268 47.548 37.725 45.0448 40.3812C43.1776 42.363 40.8826 43.4472 38.4082 43.5168C38.3278 43.5192 38.2456 43.5204 38.1646 43.5204ZM37.8058 17.0586C37.7296 17.0586 37.654 17.0598 37.5778 17.0622C35.2666 17.1264 33.1168 18.1464 31.3612 20.0094C28.9672 22.5498 27.6658 26.2914 27.7912 30.2736C28.012 37.3056 32.6428 42.9198 38.164 42.9204C38.2402 42.9204 38.3158 42.9192 38.392 42.9168C40.7032 42.8526 42.853 41.8326 44.6086 39.9696C47.0026 37.4292 48.304 33.6876 48.1786 29.7048C47.9578 22.6728 43.327 17.0586 37.8058 17.0586Z" fill="#1F212B"/>
<path d="M42.8494 37.7604C42.7816 37.7604 42.7132 37.7376 42.6574 37.6908C42.5302 37.5846 42.5134 37.3956 42.6196 37.2684C42.7444 37.119 42.865 36.9636 42.9808 36.8022C43.0774 36.6672 43.2646 36.6366 43.3996 36.7338C43.534 36.8304 43.5646 37.0182 43.468 37.1526C43.3432 37.326 43.2136 37.4928 43.0798 37.653C43.0204 37.7232 42.9352 37.7604 42.8494 37.7604Z" fill="#1F212B"/>
<path d="M38.6475 39.9198C34.8399 39.9198 31.6305 35.5878 31.4601 30.1728C31.3587 26.9412 32.3733 23.871 34.1751 21.9594C35.3241 20.7402 36.7035 20.0742 38.1645 20.0334C38.2119 20.0322 38.2593 20.0316 38.3055 20.0316C42.1125 20.0316 45.3219 24.363 45.4923 29.778C45.5625 32.022 45.1167 34.1538 44.2017 35.9418C44.1267 36.0894 43.9455 36.1482 43.7979 36.0726C43.6503 35.997 43.5921 35.8164 43.6671 35.6688C44.5359 33.9702 44.9595 31.9392 44.8923 29.7966C44.7303 24.6444 41.7231 20.5062 38.1807 20.6334C36.8817 20.67 35.6475 21.2706 34.6107 22.371C32.9157 24.1692 31.9617 27.0792 32.0583 30.1548C32.2203 35.307 35.2383 39.3936 38.7699 39.3186C39.6603 39.294 40.5159 39.0066 41.3115 38.466C41.4495 38.373 41.6355 38.4078 41.7285 38.5452C41.8215 38.6826 41.7861 38.8686 41.6493 38.9616C40.7565 39.5688 39.7935 39.8904 38.7867 39.9186C38.7417 39.9192 38.6943 39.9198 38.6475 39.9198ZM27.5925 30.5292H23.3925C23.2269 30.5292 23.0925 30.3948 23.0925 30.2292C23.0925 30.0636 23.2269 29.9292 23.3925 29.9292H27.5925C27.7581 29.9292 27.8925 30.0636 27.8925 30.2292C27.8925 30.3948 27.7581 30.5292 27.5925 30.5292Z" fill="#1F212B"/>
<path d="M28.1926 25.1292H23.9926C23.827 25.1292 23.6926 24.9948 23.6926 24.8292C23.6926 24.6636 23.827 24.5292 23.9926 24.5292H28.1926C28.3582 24.5292 28.4926 24.6636 28.4926 24.8292C28.4926 24.9948 28.3582 25.1292 28.1926 25.1292Z" fill="#1F212B"/>
<path d="M28.7925 36.5292H24.5925C24.4269 36.5292 24.2925 36.3948 24.2925 36.2292C24.2925 36.0636 24.4269 35.9292 24.5925 35.9292H28.7925C28.9581 35.9292 29.0925 36.0636 29.0925 36.2292C29.0925 36.3948 28.9581 36.5292 28.7925 36.5292Z" fill="#1F212B"/>
<path d="M33.6506 43.8762C27.6788 43.8768 22.877 37.986 22.637 30.33C22.5008 26.0046 23.8694 21.9882 26.3918 19.3116C28.232 17.358 30.5204 16.2888 33.0092 16.2192L33.0104 16.227C33.0416 16.221 33.0734 16.2174 33.1058 16.2162L37.2944 16.0962C37.3832 16.0902 37.4726 16.0836 37.5626 16.0818C37.6508 16.0788 37.7432 16.0806 37.8362 16.0818L37.9154 16.083L38.1734 16.0746C38.234 16.0776 38.2934 16.0812 38.3498 16.0962C44.1548 16.4388 48.8594 22.3374 49.0874 29.5962C49.3148 36.8364 45.011 42.9762 39.26 43.6722C39.1904 43.7064 39.116 43.7274 39.0386 43.7298L33.9704 43.8714L33.881 43.2732L33.9056 43.8732C33.821 43.875 33.7352 43.8762 33.6506 43.8762ZM33.026 16.8186L33.0428 17.4186C30.8804 17.4792 28.8818 18.4182 27.2654 20.1336C24.9602 22.5804 23.7104 26.2824 23.8364 30.2922C24.056 37.2894 28.3358 42.6774 33.6224 42.6774C33.6956 42.6774 33.7676 42.6762 33.8408 42.6738L33.9374 42.6696L38.8118 42.5346C38.8592 42.5154 38.909 42.5022 38.9612 42.4974C44.177 41.9718 48.0986 36.321 47.888 29.6334C47.6774 22.944 43.4066 17.5206 38.1644 17.2878C38.135 17.2866 38.1068 17.283 38.0786 17.2776L37.9262 17.2824L37.8164 17.2812C37.7432 17.28 37.67 17.2782 37.5974 17.2806C37.5218 17.283 37.4498 17.2884 37.3784 17.2932L37.2872 17.2998L33.1862 17.4144C33.1688 17.4162 33.1514 17.4174 33.134 17.418L33.026 16.8186Z" fill="#1F212B"/>
<path d="M37.1144 32.3292C37.1264 32.3292 37.151 32.3406 37.1876 32.3634L37.169 32.3544C37.346 32.4684 37.5038 32.5572 37.6442 32.6226C37.7846 32.688 37.9334 32.7348 38.0918 32.7624V29.9742L37.9406 29.895C37.7558 29.8002 37.5794 29.7006 37.4114 29.5956C37.2434 29.4906 37.0922 29.3742 36.9578 29.2482C36.8234 29.1222 36.71 28.9878 36.6176 28.8456C36.5252 28.7034 36.4622 28.5486 36.4286 28.38C36.4064 28.296 36.3938 28.2168 36.3908 28.1436C36.3878 28.0698 36.3866 27.9912 36.3866 27.9072C36.3866 27.66 36.4298 27.444 36.5168 27.2598C36.6038 27.0762 36.7226 26.9196 36.8738 26.79C37.025 26.661 37.2038 26.559 37.4114 26.4822C37.6184 26.406 37.8452 26.355 38.0918 26.3286V26.1072C38.0918 26.0022 38.117 25.9128 38.1674 25.839C38.2178 25.7652 38.3102 25.7286 38.4446 25.7286H38.4554C38.4554 25.7286 38.906 25.9902 38.9342 26.2584L38.9258 26.4714C39.0824 26.4978 39.2432 26.5386 39.4088 26.5938C39.5738 26.6496 39.7604 26.7192 39.9674 26.8032L39.9422 26.7876C40.0376 26.8188 40.1114 26.8584 40.1648 26.9058C40.2176 26.9532 40.25 27.0294 40.4918 27.135V27.1824C40.2614 27.219 40.2512 27.2664 40.232 27.3246C40.2128 27.3828 40.1828 27.4374 40.1438 27.4902C40.1048 27.5424 40.0598 27.5886 40.0094 27.6282C39.959 27.6672 39.9032 27.687 39.8414 27.687C39.791 27.687 39.7448 27.6834 39.7028 27.6756C39.6608 27.6672 39.8918 27.6084 39.8918 27.6084V27.6162L39.4634 27.5688C39.3008 27.4902 39.122 27.4266 38.6918 27.3792V29.5338L38.9594 29.5494C39.413 29.7654 39.7628 30.0048 40.0094 30.2676C40.256 30.531 40.4186 30.804 40.4966 31.0884C40.5302 31.2096 40.5542 31.32 40.568 31.4196C40.5818 31.5198 40.589 31.6224 40.589 31.7274C40.589 31.9698 40.547 32.1876 40.463 32.3826C40.379 32.5776 40.2638 32.7468 40.1186 32.892C39.9728 33.0366 39.7982 33.1554 39.5936 33.2472C39.389 33.339 39.1664 33.4008 38.6918 33.4326V34.0008C38.9258 34.1058 38.903 34.1952 38.8586 34.269C38.8136 34.3428 38.5814 34.7298 38.5814 34.7298H38.5946C38.4422 34.7298 38.3204 34.6914 38.2292 34.6146C38.138 34.5378 38.0924 34.4262 38.0924 34.2786V33.7086C37.7636 33.6744 37.4804 33.6066 37.2428 33.5046C37.0052 33.4026 36.7616 33.2742 36.512 33.1212C36.4448 33.0702 36.3992 33.0222 36.3752 32.9772C36.3506 32.9316 36.323 32.8692 36.293 32.7894V32.7384C36.293 32.6874 36.3098 32.6292 36.3434 32.5638C36.3764 32.499 36.4178 32.436 36.467 32.3766C36.5156 32.3172 36.5672 32.2662 36.6224 32.2236C36.677 32.181 36.7286 32.1594 36.7778 32.1594C36.845 32.1594 36.9044 32.1786 36.956 32.2152C37.0076 32.2518 37.0574 32.2902 37.1066 32.3298L37.1144 32.3292C37.1264 32.3352 37.136 32.3388 37.142 32.3388L37.1144 32.3292ZM37.6262 28.7994C37.7576 28.9158 37.913 29.0178 38.0924 29.1078V27.3792C37.88 27.4218 37.7018 27.5028 37.559 27.6234C37.4162 27.7446 37.3448 27.9072 37.3448 28.113C37.3448 28.1448 37.346 28.179 37.349 28.2162C37.3514 28.2528 37.3586 28.2978 37.37 28.35C37.409 28.5342 37.4942 28.6842 37.6262 28.7994ZM39.095 30.8796C38.9828 30.7506 38.8484 30.639 38.6918 30.5442V32.5086C38.888 32.4354 39.0518 32.322 39.1832 32.1696C39.3146 32.0172 39.3806 31.8384 39.3806 31.6332C39.3806 31.5756 39.3752 31.5228 39.3638 31.4754C39.3524 31.428 39.341 31.3788 39.3302 31.3254C39.2858 31.1568 39.2072 31.008 39.095 30.8796Z" fill="#1F212B"/>
</svg>
