<svg width="58" height="57" viewBox="0 0 58 57" fill="none" xmlns="http://www.w3.org/2000/svg">
<path d="M21.5 5V7.5H36.5V5H21.5ZM17.75 8.75V11.25H40.25V8.75H17.75ZM14 12.5V35H44V12.5H14ZM16.5 15H41.5V32.5H16.5V15ZM25.25 17.0312V30.4688L34.625 24.8047L36.4219 23.75L34.625 22.6953L25.25 17.0312ZM27.75 21.4453L31.6172 23.75L27.75 26.0547V21.4453Z" fill="white"/>
<path d="M1.932 54C1.68 54 1.484 53.9347 1.344 53.804C1.21333 53.664 1.148 53.468 1.148 53.216V44.914C1.148 44.662 1.21333 44.4707 1.344 44.34C1.484 44.2 1.68 44.13 1.932 44.13H7.042C7.238 44.13 7.38733 44.1813 7.49 44.284C7.59267 44.3773 7.644 44.5173 7.644 44.704C7.644 44.9 7.59267 45.0493 7.49 45.152C7.38733 45.2547 7.238 45.306 7.042 45.306H2.548V48.4H6.734C6.93933 48.4 7.08867 48.4513 7.182 48.554C7.28467 48.6567 7.336 48.8013 7.336 48.988C7.336 49.184 7.28467 49.3333 7.182 49.436C7.08867 49.5293 6.93933 49.576 6.734 49.576H2.548V52.824H7.042C7.238 52.824 7.38733 52.8753 7.49 52.978C7.59267 53.0807 7.644 53.2253 7.644 53.412C7.644 53.608 7.59267 53.7573 7.49 53.86C7.38733 53.9533 7.238 54 7.042 54H1.932ZM9.93814 56.618C9.71414 56.618 9.54147 56.5573 9.42014 56.436C9.29881 56.3147 9.23814 56.1373 9.23814 55.904V47.784C9.23814 47.5507 9.29881 47.3733 9.42014 47.252C9.54147 47.1307 9.70947 47.07 9.92414 47.07C10.1481 47.07 10.3208 47.1307 10.4421 47.252C10.5635 47.3733 10.6241 47.5507 10.6241 47.784V49.002L10.4701 48.708C10.6195 48.204 10.9135 47.8027 11.3521 47.504C11.7908 47.196 12.3088 47.042 12.9061 47.042C13.5128 47.042 14.0401 47.1867 14.4881 47.476C14.9455 47.7653 15.2955 48.1713 15.5381 48.694C15.7901 49.2167 15.9161 49.8467 15.9161 50.584C15.9161 51.3027 15.7901 51.9327 15.5381 52.474C15.2955 53.006 14.9501 53.4167 14.5021 53.706C14.0541 53.986 13.5221 54.126 12.9061 54.126C12.3181 54.126 11.8048 53.9767 11.3661 53.678C10.9275 53.3793 10.6335 52.9827 10.4841 52.488H10.6521V55.904C10.6521 56.1373 10.5868 56.3147 10.4561 56.436C10.3348 56.5573 10.1621 56.618 9.93814 56.618ZM12.5561 53.034C12.9481 53.034 13.2888 52.9407 13.5781 52.754C13.8675 52.5673 14.0915 52.292 14.2501 51.928C14.4088 51.564 14.4881 51.116 14.4881 50.584C14.4881 49.7813 14.3108 49.1747 13.9561 48.764C13.6108 48.3533 13.1441 48.148 12.5561 48.148C12.1735 48.148 11.8328 48.2413 11.5341 48.428C11.2448 48.6053 11.0208 48.876 10.8621 49.24C10.7035 49.604 10.6241 50.052 10.6241 50.584C10.6241 51.3773 10.8015 51.984 11.1561 52.404C11.5108 52.824 11.9775 53.034 12.5561 53.034ZM18.2096 54.084C17.9856 54.084 17.813 54.0187 17.6916 53.888C17.5703 53.748 17.5096 53.5567 17.5096 53.314V47.854C17.5096 47.6113 17.5703 47.4247 17.6916 47.294C17.813 47.1633 17.9856 47.098 18.2096 47.098C18.4336 47.098 18.6063 47.1633 18.7276 47.294C18.8583 47.4247 18.9236 47.6113 18.9236 47.854V53.314C18.9236 53.5567 18.863 53.748 18.7416 53.888C18.6203 54.0187 18.443 54.084 18.2096 54.084ZM18.2096 45.642C17.9296 45.642 17.7103 45.572 17.5516 45.432C17.4023 45.292 17.3276 45.096 17.3276 44.844C17.3276 44.5827 17.4023 44.3867 17.5516 44.256C17.7103 44.116 17.9296 44.046 18.2096 44.046C18.4896 44.046 18.7043 44.116 18.8536 44.256C19.0123 44.3867 19.0916 44.5827 19.0916 44.844C19.0916 45.096 19.0123 45.292 18.8536 45.432C18.7043 45.572 18.4896 45.642 18.2096 45.642ZM23.3079 54.126C22.8973 54.126 22.4726 54.0793 22.0339 53.986C21.6046 53.8927 21.2079 53.734 20.8439 53.51C20.7226 53.426 20.6386 53.3327 20.5919 53.23C20.5453 53.1273 20.5266 53.0247 20.5359 52.922C20.5546 52.81 20.5966 52.7167 20.6619 52.642C20.7366 52.558 20.8253 52.5067 20.9279 52.488C21.0399 52.4693 21.1566 52.4927 21.2779 52.558C21.6419 52.7633 21.9919 52.908 22.3279 52.992C22.6639 53.0667 22.9953 53.104 23.3219 53.104C23.8166 53.104 24.1899 53.0153 24.4419 52.838C24.6939 52.6607 24.8199 52.4227 24.8199 52.124C24.8199 51.8813 24.7359 51.6947 24.5679 51.564C24.3999 51.424 24.1479 51.3167 23.8119 51.242L22.4819 50.976C21.9033 50.8547 21.4646 50.64 21.1659 50.332C20.8673 50.024 20.7179 49.632 20.7179 49.156C20.7179 48.7267 20.8346 48.3533 21.0679 48.036C21.3013 47.7187 21.6279 47.476 22.0479 47.308C22.4679 47.1307 22.9533 47.042 23.5039 47.042C23.9146 47.042 24.3019 47.0933 24.6659 47.196C25.0299 47.2987 25.3659 47.4527 25.6739 47.658C25.7953 47.7233 25.8746 47.812 25.9119 47.924C25.9493 48.0267 25.9539 48.1293 25.9259 48.232C25.9073 48.3347 25.8606 48.428 25.7859 48.512C25.7113 48.5867 25.6179 48.6333 25.5059 48.652C25.4033 48.6613 25.2866 48.6333 25.1559 48.568C24.8759 48.3907 24.5959 48.2647 24.3159 48.19C24.0453 48.1153 23.7746 48.078 23.5039 48.078C23.0093 48.078 22.6359 48.1713 22.3839 48.358C22.1413 48.5353 22.0199 48.778 22.0199 49.086C22.0199 49.3193 22.0946 49.5107 22.2439 49.66C22.3933 49.8093 22.6266 49.9167 22.9439 49.982L24.2739 50.248C24.8806 50.3693 25.3379 50.5747 25.6459 50.864C25.9633 51.1533 26.1219 51.5453 26.1219 52.04C26.1219 52.684 25.8653 53.1927 25.3519 53.566C24.8386 53.9393 24.1573 54.126 23.3079 54.126ZM30.6632 54.126C29.9725 54.126 29.3752 53.9813 28.8712 53.692C28.3765 53.4027 27.9892 52.992 27.7092 52.46C27.4292 51.928 27.2892 51.3027 27.2892 50.584C27.2892 50.0333 27.3685 49.5433 27.5272 49.114C27.6858 48.6847 27.9098 48.316 28.1992 48.008C28.4978 47.6907 28.8525 47.4527 29.2632 47.294C29.6832 47.126 30.1498 47.042 30.6632 47.042C31.3445 47.042 31.9325 47.1867 32.4272 47.476C32.9312 47.7653 33.3232 48.176 33.6032 48.708C33.8832 49.2307 34.0232 49.856 34.0232 50.584C34.0232 51.1253 33.9438 51.6153 33.7852 52.054C33.6265 52.4927 33.3978 52.866 33.0992 53.174C32.8098 53.482 32.4552 53.72 32.0352 53.888C31.6245 54.0467 31.1672 54.126 30.6632 54.126ZM30.6632 53.034C31.0458 53.034 31.3818 52.9407 31.6712 52.754C31.9605 52.5673 32.1845 52.292 32.3432 51.928C32.5112 51.564 32.5952 51.116 32.5952 50.584C32.5952 49.7813 32.4178 49.1747 32.0632 48.764C31.7085 48.3533 31.2418 48.148 30.6632 48.148C30.2712 48.148 29.9305 48.2413 29.6412 48.428C29.3518 48.6053 29.1232 48.876 28.9552 49.24C28.7965 49.604 28.7172 50.052 28.7172 50.584C28.7172 51.3773 28.8945 51.984 29.2492 52.404C29.6038 52.824 30.0752 53.034 30.6632 53.034ZM38.2152 54.126C37.6179 54.126 37.0905 53.986 36.6332 53.706C36.1852 53.4167 35.8352 53.006 35.5832 52.474C35.3312 51.9327 35.2052 51.3027 35.2052 50.584C35.2052 49.8467 35.3312 49.2167 35.5832 48.694C35.8352 48.1713 36.1852 47.7653 36.6332 47.476C37.0905 47.1867 37.6179 47.042 38.2152 47.042C38.8125 47.042 39.3259 47.1913 39.7552 47.49C40.1939 47.7793 40.4879 48.1713 40.6372 48.666H40.4832V44.746C40.4832 44.5127 40.5439 44.3353 40.6652 44.214C40.7865 44.0927 40.9592 44.032 41.1832 44.032C41.4072 44.032 41.5799 44.0927 41.7012 44.214C41.8319 44.3353 41.8972 44.5127 41.8972 44.746V53.384C41.8972 53.608 41.8365 53.7853 41.7152 53.916C41.5939 54.0373 41.4212 54.098 41.1972 54.098C40.9732 54.098 40.8005 54.0373 40.6792 53.916C40.5579 53.7853 40.4972 53.608 40.4972 53.384V52.152L40.6512 52.46C40.5019 52.964 40.2079 53.37 39.7692 53.678C39.3399 53.9767 38.8219 54.126 38.2152 54.126ZM38.5792 53.034C38.9619 53.034 39.2979 52.9407 39.5872 52.754C39.8765 52.5673 40.1005 52.292 40.2592 51.928C40.4272 51.564 40.5112 51.116 40.5112 50.584C40.5112 49.7813 40.3339 49.1747 39.9792 48.764C39.6245 48.3533 39.1579 48.148 38.5792 48.148C38.1872 48.148 37.8465 48.2413 37.5572 48.428C37.2679 48.6053 37.0392 48.876 36.8712 49.24C36.7125 49.604 36.6332 50.052 36.6332 50.584C36.6332 51.3773 36.8105 51.984 37.1652 52.404C37.5199 52.824 37.9912 53.034 38.5792 53.034ZM47.0887 54.126C46.342 54.126 45.698 53.986 45.1567 53.706C44.6247 53.4167 44.2093 53.0107 43.9107 52.488C43.6213 51.956 43.4767 51.326 43.4767 50.598C43.4767 49.8887 43.6213 49.268 43.9107 48.736C44.2 48.204 44.5967 47.7887 45.1007 47.49C45.6047 47.1913 46.1787 47.042 46.8227 47.042C47.2987 47.042 47.7233 47.1213 48.0967 47.28C48.47 47.4293 48.7873 47.6533 49.0487 47.952C49.3193 48.2413 49.52 48.596 49.6507 49.016C49.7907 49.436 49.8607 49.9073 49.8607 50.43C49.8607 50.5887 49.814 50.71 49.7207 50.794C49.6273 50.8687 49.4873 50.906 49.3007 50.906H44.5967V50.038H48.9087L48.6707 50.234C48.6707 49.7673 48.6007 49.3707 48.4607 49.044C48.33 48.7173 48.1293 48.47 47.8587 48.302C47.5973 48.1247 47.2707 48.036 46.8787 48.036C46.44 48.036 46.0667 48.1387 45.7587 48.344C45.46 48.5493 45.2313 48.834 45.0727 49.198C44.914 49.562 44.8347 49.9867 44.8347 50.472V50.556C44.8347 51.3773 45.026 51.998 45.4087 52.418C45.8007 52.8287 46.3653 53.034 47.1027 53.034C47.3827 53.034 47.6767 52.9967 47.9847 52.922C48.302 52.8473 48.6007 52.7213 48.8807 52.544C49.0393 52.4507 49.1793 52.4087 49.3007 52.418C49.4313 52.4273 49.534 52.4693 49.6087 52.544C49.6927 52.6187 49.744 52.712 49.7627 52.824C49.7813 52.936 49.7627 53.0527 49.7067 53.174C49.6507 53.286 49.5527 53.3887 49.4127 53.482C49.0953 53.6967 48.7267 53.86 48.3067 53.972C47.8867 54.0747 47.4807 54.126 47.0887 54.126ZM53.7962 54.126C53.3855 54.126 52.9609 54.0793 52.5222 53.986C52.0929 53.8927 51.6962 53.734 51.3322 53.51C51.2109 53.426 51.1269 53.3327 51.0802 53.23C51.0335 53.1273 51.0149 53.0247 51.0242 52.922C51.0429 52.81 51.0849 52.7167 51.1502 52.642C51.2249 52.558 51.3135 52.5067 51.4162 52.488C51.5282 52.4693 51.6449 52.4927 51.7662 52.558C52.1302 52.7633 52.4802 52.908 52.8162 52.992C53.1522 53.0667 53.4835 53.104 53.8102 53.104C54.3049 53.104 54.6782 53.0153 54.9302 52.838C55.1822 52.6607 55.3082 52.4227 55.3082 52.124C55.3082 51.8813 55.2242 51.6947 55.0562 51.564C54.8882 51.424 54.6362 51.3167 54.3002 51.242L52.9702 50.976C52.3915 50.8547 51.9529 50.64 51.6542 50.332C51.3555 50.024 51.2062 49.632 51.2062 49.156C51.2062 48.7267 51.3229 48.3533 51.5562 48.036C51.7895 47.7187 52.1162 47.476 52.5362 47.308C52.9562 47.1307 53.4415 47.042 53.9922 47.042C54.4029 47.042 54.7902 47.0933 55.1542 47.196C55.5182 47.2987 55.8542 47.4527 56.1622 47.658C56.2835 47.7233 56.3629 47.812 56.4002 47.924C56.4375 48.0267 56.4422 48.1293 56.4142 48.232C56.3955 48.3347 56.3489 48.428 56.2742 48.512C56.1995 48.5867 56.1062 48.6333 55.9942 48.652C55.8915 48.6613 55.7749 48.6333 55.6442 48.568C55.3642 48.3907 55.0842 48.2647 54.8042 48.19C54.5335 48.1153 54.2629 48.078 53.9922 48.078C53.4975 48.078 53.1242 48.1713 52.8722 48.358C52.6295 48.5353 52.5082 48.778 52.5082 49.086C52.5082 49.3193 52.5829 49.5107 52.7322 49.66C52.8815 49.8093 53.1149 49.9167 53.4322 49.982L54.7622 50.248C55.3689 50.3693 55.8262 50.5747 56.1342 50.864C56.4515 51.1533 56.6102 51.5453 56.6102 52.04C56.6102 52.684 56.3535 53.1927 55.8402 53.566C55.3269 53.9393 54.6455 54.126 53.7962 54.126Z" fill="white"/>
</svg>
