<svg width="21" height="20" viewBox="0 0 21 20" fill="none" xmlns="http://www.w3.org/2000/svg">
<path d="M13.685 4.21542C13.5154 4.01584 13.2392 3.9425 12.9929 4.03292C12.7471 4.12334 12.5833 4.3575 12.5833 4.61959V6.45834C12.5833 6.80292 12.3029 7.08334 11.9583 7.08334C11.6138 7.08334 11.3333 6.80292 11.3333 6.45834V2.05625C11.3333 1.87709 11.2567 1.70709 11.1225 1.58834C10.9838 1.46584 10.9025 1.39709 10.9025 1.39709C10.6708 1.20209 10.3317 1.20125 10.0988 1.39584C9.84293 1.61 3.83334 6.69667 3.83334 11.6667C3.83334 15.3425 6.82418 18.3333 10.5 18.3333C14.1758 18.3333 17.1667 15.3425 17.1667 11.6667C17.1667 8.89834 15.2733 6.08667 13.685 4.21542ZM10.5808 17.2904C9.95334 17.3088 9.35543 17.0679 8.86209 16.6796C6.44834 14.78 8.70626 11.7375 9.88543 10.4263C10.215 10.06 10.7871 10.0621 11.1167 10.4283C11.9158 11.3175 13.2083 13 13.2083 14.5833C13.2083 16.0521 12.0392 17.2475 10.5808 17.2904Z" fill="url(#paint0_linear_62_913)"/>
<defs>
<linearGradient id="paint0_linear_62_913" x1="2.50001" y1="4.40415" x2="18.823" y2="15.3893" gradientUnits="userSpaceOnUse">
<stop stop-color="#FFBE00"/>
<stop offset="0.528601" stop-color="#FF55FD"/>
<stop offset="1" stop-color="#7FBBFF"/>
</linearGradient>
</defs>
</svg>
