<svg width="40" height="55" viewBox="0 0 40 55" fill="none" xmlns="http://www.w3.org/2000/svg">
<path d="M26.37 8.43084C26.0309 8.03167 25.4784 7.88501 24.9859 8.06584C24.4942 8.24667 24.1667 8.71501 24.1667 9.23917V12.9167C24.1667 13.6058 23.6059 14.1667 22.9167 14.1667C22.2275 14.1667 21.6667 13.6058 21.6667 12.9167V4.11251C21.6667 3.75417 21.5134 3.41417 21.245 3.17667C20.9675 2.93167 20.805 2.79417 20.805 2.79417C20.3417 2.40417 19.6634 2.40251 19.1975 2.79167C18.6859 3.22001 6.66669 13.3933 6.66669 23.3333C6.66669 30.685 12.6484 36.6667 20 36.6667C27.3517 36.6667 33.3334 30.685 33.3334 23.3333C33.3334 17.7967 29.5467 12.1733 26.37 8.43084ZM20.1617 34.5808C18.9067 34.6175 17.7109 34.1358 16.7242 33.3592C11.8967 29.56 16.4125 23.475 18.7709 20.8525C19.43 20.12 20.5742 20.1242 21.2334 20.8567C22.8317 22.635 25.4167 26 25.4167 29.1667C25.4167 32.1042 23.0784 34.495 20.1617 34.5808Z" fill="url(#paint0_linear_63_258)"/>
<path d="M7.834 54C7.582 54 7.4 53.944 7.288 53.832C7.176 53.7107 7.12 53.5473 7.12 53.342C7.12 53.2113 7.15267 53.0853 7.218 52.964C7.28333 52.8427 7.37667 52.7167 7.498 52.586L10.48 49.394C10.9373 48.9087 11.264 48.4653 11.46 48.064C11.6653 47.6533 11.768 47.2427 11.768 46.832C11.768 46.3093 11.6093 45.9127 11.292 45.642C10.9747 45.3713 10.508 45.236 9.892 45.236C9.51867 45.236 9.15933 45.292 8.814 45.404C8.46867 45.516 8.12333 45.698 7.778 45.95C7.638 46.0433 7.50733 46.0853 7.386 46.076C7.26467 46.0667 7.15733 46.02 7.064 45.936C6.98 45.852 6.924 45.7493 6.896 45.628C6.868 45.5067 6.87267 45.3807 6.91 45.25C6.94733 45.1193 7.036 45.0073 7.176 44.914C7.55867 44.6247 8.002 44.4007 8.506 44.242C9.01 44.0833 9.52333 44.004 10.046 44.004C10.7273 44.004 11.3013 44.1113 11.768 44.326C12.244 44.5313 12.6033 44.8347 12.846 45.236C13.0887 45.6373 13.21 46.1273 13.21 46.706C13.21 47.098 13.1447 47.4807 13.014 47.854C12.8927 48.2273 12.7013 48.61 12.44 49.002C12.188 49.3847 11.8567 49.7907 11.446 50.22L8.618 53.188V52.782H13.07C13.2753 52.782 13.434 52.8333 13.546 52.936C13.658 53.0387 13.714 53.188 13.714 53.384C13.714 53.58 13.658 53.734 13.546 53.846C13.434 53.9487 13.2753 54 13.07 54H7.834ZM16.0745 54.056C15.8039 54.056 15.5845 53.972 15.4165 53.804C15.2485 53.636 15.1645 53.4213 15.1645 53.16C15.1645 52.8987 15.2485 52.6887 15.4165 52.53C15.5845 52.362 15.8039 52.278 16.0745 52.278C16.3452 52.278 16.5599 52.362 16.7185 52.53C16.8772 52.6887 16.9565 52.8987 16.9565 53.16C16.9565 53.4213 16.8772 53.636 16.7185 53.804C16.5599 53.972 16.3452 54.056 16.0745 54.056ZM22.0708 54.126C21.5575 54.126 21.0395 54.056 20.5168 53.916C19.9941 53.7667 19.5181 53.538 19.0888 53.23C18.9488 53.146 18.8555 53.0387 18.8088 52.908C18.7621 52.7773 18.7528 52.6513 18.7808 52.53C18.8088 52.3993 18.8648 52.292 18.9488 52.208C19.0421 52.124 19.1541 52.0773 19.2848 52.068C19.4155 52.0493 19.5555 52.0867 19.7048 52.18C20.0688 52.4133 20.4421 52.5907 20.8248 52.712C21.2168 52.8333 21.6228 52.894 22.0428 52.894C22.4721 52.894 22.8408 52.8147 23.1488 52.656C23.4568 52.4973 23.6901 52.278 23.8488 51.998C24.0168 51.7087 24.1008 51.3727 24.1008 50.99C24.1008 50.402 23.9281 49.9213 23.5828 49.548C23.2375 49.1747 22.7568 48.988 22.1408 48.988C21.7861 48.988 21.4548 49.0533 21.1468 49.184C20.8388 49.3053 20.5448 49.5107 20.2648 49.8C20.1995 49.8747 20.1108 49.9447 19.9988 50.01C19.8961 50.066 19.7795 50.094 19.6488 50.094C19.4528 50.094 19.3035 50.0427 19.2008 49.94C19.0981 49.8373 19.0468 49.6973 19.0468 49.52V44.774C19.0468 44.5687 19.1028 44.41 19.2148 44.298C19.3268 44.186 19.4855 44.13 19.6908 44.13H24.3808C24.5861 44.13 24.7448 44.1813 24.8568 44.284C24.9688 44.3867 25.0248 44.536 25.0248 44.732C25.0248 44.928 24.9688 45.082 24.8568 45.194C24.7448 45.2967 24.5861 45.348 24.3808 45.348H20.4608V48.904H20.0688C20.3208 48.5493 20.6521 48.274 21.0628 48.078C21.4828 47.882 21.9448 47.784 22.4488 47.784C23.0741 47.784 23.6155 47.9147 24.0728 48.176C24.5301 48.4373 24.8848 48.806 25.1368 49.282C25.3888 49.7487 25.5148 50.2947 25.5148 50.92C25.5148 51.5547 25.3748 52.1147 25.0948 52.6C24.8148 53.076 24.4181 53.4493 23.9048 53.72C23.3915 53.9907 22.7801 54.126 22.0708 54.126ZM27.8053 54.098C27.5813 54.098 27.4087 54.0373 27.2873 53.916C27.166 53.7853 27.1053 53.608 27.1053 53.384V44.746C27.1053 44.5127 27.166 44.3353 27.2873 44.214C27.4087 44.0927 27.5813 44.032 27.8053 44.032C28.0293 44.032 28.202 44.0927 28.3233 44.214C28.454 44.3353 28.5193 44.5127 28.5193 44.746V50.15H28.5473L31.1653 47.546C31.3147 47.3967 31.45 47.28 31.5713 47.196C31.6927 47.112 31.8513 47.07 32.0473 47.07C32.2433 47.07 32.3927 47.1213 32.4953 47.224C32.598 47.3267 32.6493 47.4527 32.6493 47.602C32.6493 47.742 32.5793 47.8867 32.4393 48.036L29.6673 50.78V50.122L32.6913 53.132C32.8407 53.2813 32.9107 53.4307 32.9013 53.58C32.892 53.7293 32.8313 53.8553 32.7193 53.958C32.6073 54.0513 32.4673 54.098 32.2993 54.098C32.0847 54.098 31.912 54.056 31.7813 53.972C31.66 53.888 31.5153 53.762 31.3473 53.594L28.5473 50.878H28.5193V53.384C28.5193 53.86 28.2813 54.098 27.8053 54.098Z" fill="white"/>
<defs>
<linearGradient id="paint0_linear_63_258" x1="4.00002" y1="8.80829" x2="36.6459" y2="30.7785" gradientUnits="userSpaceOnUse">
<stop stop-color="#FFBE00"/>
<stop offset="0.528601" stop-color="#FF55FD"/>
<stop offset="1" stop-color="#7FBBFF"/>
</linearGradient>
</defs>
</svg>
