<svg width="32" height="33" viewBox="0 0 32 33" fill="none" xmlns="http://www.w3.org/2000/svg">
<path d="M7.66667 4.5C5.65348 4.5 4 6.15348 4 8.16667V24.8333C4 26.8465 5.65348 28.5 7.66667 28.5H24.3333C26.3465 28.5 28 26.8465 28 24.8333V8.16667C28 6.15348 26.3465 4.5 24.3333 4.5H7.66667ZM7.66667 6.5H24.3333C25.2655 6.5 26 7.23452 26 8.16667V24.8333C26 25.7655 25.2655 26.5 24.3333 26.5H7.66667C6.73452 26.5 6 25.7655 6 24.8333V8.16667C6 7.23452 6.73452 6.5 7.66667 6.5ZM12.6667 10.5052C11.6407 10.5052 10.6151 10.8944 9.83854 11.6719C8.28628 13.2233 8.28513 15.7676 9.83333 17.3216L9.83594 17.3242C9.83707 17.3254 9.83741 17.3269 9.83854 17.3281L15.2865 22.8672C15.3795 22.9621 15.4904 23.0375 15.6129 23.089C15.7354 23.1405 15.8669 23.1671 15.9997 23.1672C16.1326 23.1673 16.2641 23.141 16.3867 23.0897C16.5093 23.0384 16.6204 22.9632 16.7135 22.8685L22.168 17.3229L22.1615 17.3281C23.7151 15.7745 23.7151 13.2255 22.1615 11.6719C20.6083 10.1178 18.0581 10.1172 16.5052 11.6719L16 12.138L15.4961 11.6719C14.7195 10.8944 13.6926 10.5052 12.6667 10.5052ZM12.6667 12.4935C13.1764 12.4935 13.6866 12.6914 14.0807 13.0859C14.0901 13.0952 14.0996 13.1044 14.1094 13.1133L15.3203 14.2344C15.5051 14.4053 15.7476 14.5002 15.9993 14.5002C16.2511 14.5002 16.4936 14.4053 16.6784 14.2344L17.8919 13.1133C17.9017 13.1044 17.9112 13.0952 17.9206 13.0859C18.7088 12.2968 19.9592 12.2968 20.7474 13.0859C21.5364 13.8749 21.5364 15.1251 20.7474 15.9141C20.7457 15.9162 20.7439 15.9184 20.7422 15.9206L16 20.7396L11.2591 15.9193C11.257 15.9171 11.2548 15.9149 11.2526 15.9128C10.4629 15.1235 10.4629 13.8752 11.2526 13.0859H11.2539C11.648 12.6914 12.157 12.4935 12.6667 12.4935Z" fill="white" fill-opacity="0.5"/>
</svg>
