<svg width="32" height="33" viewBox="0 0 32 33" fill="none" xmlns="http://www.w3.org/2000/svg">
<path d="M24.3333 4.5H7.66667C5.64533 4.5 4 6.14533 4 8.16667V24.8333C4 26.8547 5.64533 28.5 7.66667 28.5H24.3333C26.3547 28.5 28 26.8547 28 24.8333V8.16667C28 6.14533 26.3547 4.5 24.3333 4.5ZM21.69 16.8573L16.7313 22.1813C16.542 22.3847 16.2773 22.5 16 22.5C15.7227 22.5 15.458 22.3847 15.268 22.1813L10.2847 16.8313C9.68067 16.228 9.33333 15.3907 9.33333 14.5C9.33333 13.6093 9.68067 12.772 10.31 12.1427C11.6093 10.8447 13.724 10.844 15.0233 12.1433L16 13.12L16.9767 12.1433C18.276 10.844 20.3907 10.8447 21.69 12.1427C22.3193 12.772 22.6667 13.6093 22.6667 14.5C22.6667 15.3907 22.3193 16.228 21.69 16.8573Z" fill="url(#paint0_linear_510_272)"/>
<defs>
<linearGradient id="paint0_linear_510_272" x1="1.6" y1="8.93077" x2="26.0848" y2="30.0427" gradientUnits="userSpaceOnUse">
<stop stop-color="#FFBE00"/>
<stop offset="0.528601" stop-color="#FF55FD"/>
<stop offset="1" stop-color="#7FBBFF"/>
</linearGradient>
</defs>
</svg>
