<svg width="30" height="31" viewBox="0 0 30 31" fill="none" xmlns="http://www.w3.org/2000/svg">
<path d="M24.6875 27.375H19.0625C18.1994 27.375 17.5 26.6756 17.5 25.8125V20.1875C17.5 19.4969 16.9406 18.9375 16.25 18.9375H13.75C13.0594 18.9375 12.5 19.4969 12.5 20.1875V25.8125C12.5 26.6756 11.8006 27.375 10.9375 27.375H5.3125C4.44937 27.375 3.75 26.6756 3.75 25.8125V13.8831C3.75 12.4462 4.40875 11.0887 5.53688 10.2L14.4194 3.20063C14.76 2.93313 15.24 2.93313 15.58 3.20063L24.4637 10.2C25.5919 11.0887 26.25 12.4456 26.25 13.8819V25.8125C26.25 26.6756 25.5506 27.375 24.6875 27.375Z" fill="url(#paint0_linear_510_51)"/>
<defs>
<linearGradient id="paint0_linear_510_51" x1="1.5" y1="7.5" x2="26" y2="27" gradientUnits="userSpaceOnUse">
<stop stop-color="#FFBE00"/>
<stop offset="0.528601" stop-color="#FF55FD"/>
<stop offset="1" stop-color="#7FBBFF"/>
</linearGradient>
</defs>
</svg>
