<svg width="31" height="31" viewBox="0 0 31 31" fill="none" xmlns="http://www.w3.org/2000/svg">
<path d="M15.4695 3C15.2696 3.00682 15.0771 3.0774 14.9202 3.20141L6.03711 10.1997C4.90967 11.0882 4.25 12.4459 4.25 13.8813V25.8125C4.25 26.6647 4.96025 27.375 5.8125 27.375H12.0625C12.9147 27.375 13.625 26.6647 13.625 25.8125V19.5625C13.625 19.3781 13.7531 19.25 13.9375 19.25H17.0625C17.2469 19.25 17.375 19.3781 17.375 19.5625V25.8125C17.375 26.6647 18.0853 27.375 18.9375 27.375H25.1875C26.0397 27.375 26.75 26.6647 26.75 25.8125V13.8813C26.75 12.4459 26.0903 11.0882 24.9629 10.1997L16.0798 3.20141C15.9065 3.06446 15.6903 2.99313 15.4695 3ZM15.5 5.13134L23.8032 11.6731C24.4808 12.2071 24.875 13.0193 24.875 13.8813V25.5H19.25V19.5625C19.25 18.3656 18.2593 17.375 17.0625 17.375H13.9375C12.7407 17.375 11.75 18.3656 11.75 19.5625V25.5H6.125V13.8813C6.125 13.0193 6.51921 12.2071 7.19678 11.6731L15.5 5.13134Z" fill="white" fill-opacity="0.5"/>
</svg>
