<svg width="30" height="31" viewBox="0 0 30 31" fill="none" xmlns="http://www.w3.org/2000/svg">
<path d="M22.8125 4.875H7.1875C5.2925 4.875 3.75 6.4175 3.75 8.3125V23.9375C3.75 25.8325 5.2925 27.375 7.1875 27.375H22.8125C24.7075 27.375 26.25 25.8325 26.25 23.9375V8.3125C26.25 6.4175 24.7075 4.875 22.8125 4.875ZM9.0625 22.0625C8.37187 22.0625 7.8125 21.5025 7.8125 20.8125C7.8125 20.1219 8.37187 19.5625 9.0625 19.5625C9.75313 19.5625 10.3125 20.1219 10.3125 20.8125C10.3125 21.5025 9.75313 22.0625 9.0625 22.0625ZM9.0625 17.6875C8.37187 17.6875 7.8125 17.1275 7.8125 16.4375C7.8125 15.7469 8.37187 15.1875 9.0625 15.1875C9.75313 15.1875 10.3125 15.7469 10.3125 16.4375C10.3125 17.1275 9.75313 17.6875 9.0625 17.6875ZM9.0625 13.3125C8.37187 13.3125 7.8125 12.7525 7.8125 12.0625C7.8125 11.3719 8.37187 10.8125 9.0625 10.8125C9.75313 10.8125 10.3125 11.3719 10.3125 12.0625C10.3125 12.7525 9.75313 13.3125 9.0625 13.3125ZM21.5625 21.75H12.8125C12.295 21.75 11.875 21.33 11.875 20.8125C11.875 20.295 12.295 19.875 12.8125 19.875H21.5625C22.08 19.875 22.5 20.295 22.5 20.8125C22.5 21.33 22.08 21.75 21.5625 21.75ZM21.5625 17.375H12.8125C12.295 17.375 11.875 16.955 11.875 16.4375C11.875 15.92 12.295 15.5 12.8125 15.5H21.5625C22.08 15.5 22.5 15.92 22.5 16.4375C22.5 16.955 22.08 17.375 21.5625 17.375ZM21.5625 13H12.8125C12.295 13 11.875 12.58 11.875 12.0625C11.875 11.545 12.295 11.125 12.8125 11.125H21.5625C22.08 11.125 22.5 11.545 22.5 12.0625C22.5 12.58 22.08 13 21.5625 13Z" fill="url(#paint0_linear_510_255)"/>
<defs>
<linearGradient id="paint0_linear_510_255" x1="1.5" y1="9.02885" x2="24.4545" y2="28.8213" gradientUnits="userSpaceOnUse">
<stop stop-color="#FFBE00"/>
<stop offset="0.528601" stop-color="#FF55FD"/>
<stop offset="1" stop-color="#7FBBFF"/>
</linearGradient>
</defs>
</svg>
