<svg width="30" height="31" viewBox="0 0 30 31" fill="none" xmlns="http://www.w3.org/2000/svg">
<path d="M7.1875 4.875C5.30014 4.875 3.75 6.42514 3.75 8.3125V23.9375C3.75 25.8249 5.30014 27.375 7.1875 27.375H22.8125C24.6999 27.375 26.25 25.8249 26.25 23.9375V8.3125C26.25 6.42514 24.6999 4.875 22.8125 4.875H7.1875ZM7.1875 6.75H22.8125C23.6864 6.75 24.375 7.43861 24.375 8.3125V23.9375C24.375 24.8114 23.6864 25.5 22.8125 25.5H7.1875C6.31361 25.5 5.625 24.8114 5.625 23.9375V8.3125C5.625 7.43861 6.31361 6.75 7.1875 6.75ZM9.0625 10.8125C8.73098 10.8125 8.41304 10.9442 8.17862 11.1786C7.9442 11.413 7.8125 11.731 7.8125 12.0625C7.8125 12.394 7.9442 12.712 8.17862 12.9464C8.41304 13.1808 8.73098 13.3125 9.0625 13.3125C9.39402 13.3125 9.71196 13.1808 9.94638 12.9464C10.1808 12.712 10.3125 12.394 10.3125 12.0625C10.3125 11.731 10.1808 11.413 9.94638 11.1786C9.71196 10.9442 9.39402 10.8125 9.0625 10.8125ZM12.8125 11.125C12.6883 11.1232 12.5649 11.1462 12.4496 11.1925C12.3344 11.2388 12.2294 11.3076 12.141 11.3949C12.0525 11.4821 11.9822 11.586 11.9343 11.7006C11.8863 11.8153 11.8616 11.9383 11.8616 12.0625C11.8616 12.1867 11.8863 12.3097 11.9343 12.4244C11.9822 12.539 12.0525 12.6429 12.141 12.7301C12.2294 12.8174 12.3344 12.8862 12.4496 12.9325C12.5649 12.9788 12.6883 13.0018 12.8125 13H21.5625C21.6867 13.0018 21.8101 12.9788 21.9254 12.9325C22.0406 12.8862 22.1456 12.8174 22.234 12.7301C22.3225 12.6429 22.3928 12.539 22.4407 12.4244C22.4887 12.3097 22.5134 12.1867 22.5134 12.0625C22.5134 11.9383 22.4887 11.8153 22.4407 11.7006C22.3928 11.586 22.3225 11.4821 22.234 11.3949C22.1456 11.3076 22.0406 11.2388 21.9254 11.1925C21.8101 11.1462 21.6867 11.1232 21.5625 11.125H12.8125ZM9.0625 15.1875C8.73098 15.1875 8.41304 15.3192 8.17862 15.5536C7.9442 15.788 7.8125 16.106 7.8125 16.4375C7.8125 16.769 7.9442 17.087 8.17862 17.3214C8.41304 17.5558 8.73098 17.6875 9.0625 17.6875C9.39402 17.6875 9.71196 17.5558 9.94638 17.3214C10.1808 17.087 10.3125 16.769 10.3125 16.4375C10.3125 16.106 10.1808 15.788 9.94638 15.5536C9.71196 15.3192 9.39402 15.1875 9.0625 15.1875ZM12.8125 15.5C12.6883 15.4982 12.5649 15.5212 12.4496 15.5675C12.3344 15.6138 12.2294 15.6826 12.141 15.7699C12.0525 15.8571 11.9822 15.961 11.9343 16.0756C11.8863 16.1903 11.8616 16.3133 11.8616 16.4375C11.8616 16.5617 11.8863 16.6847 11.9343 16.7994C11.9822 16.914 12.0525 17.0179 12.141 17.1051C12.2294 17.1924 12.3344 17.2612 12.4496 17.3075C12.5649 17.3538 12.6883 17.3768 12.8125 17.375H21.5625C21.6867 17.3768 21.8101 17.3538 21.9254 17.3075C22.0406 17.2612 22.1456 17.1924 22.234 17.1051C22.3225 17.0179 22.3928 16.914 22.4407 16.7994C22.4887 16.6847 22.5134 16.5617 22.5134 16.4375C22.5134 16.3133 22.4887 16.1903 22.4407 16.0756C22.3928 15.961 22.3225 15.8571 22.234 15.7699C22.1456 15.6826 22.0406 15.6138 21.9254 15.5675C21.8101 15.5212 21.6867 15.4982 21.5625 15.5H12.8125ZM9.0625 19.5625C8.73098 19.5625 8.41304 19.6942 8.17862 19.9286C7.9442 20.163 7.8125 20.481 7.8125 20.8125C7.8125 21.144 7.9442 21.462 8.17862 21.6964C8.41304 21.9308 8.73098 22.0625 9.0625 22.0625C9.39402 22.0625 9.71196 21.9308 9.94638 21.6964C10.1808 21.462 10.3125 21.144 10.3125 20.8125C10.3125 20.481 10.1808 20.163 9.94638 19.9286C9.71196 19.6942 9.39402 19.5625 9.0625 19.5625ZM12.8125 19.875C12.6883 19.8732 12.5649 19.8962 12.4496 19.9425C12.3344 19.9888 12.2294 20.0576 12.141 20.1449C12.0525 20.2321 11.9822 20.336 11.9343 20.4506C11.8863 20.5653 11.8616 20.6883 11.8616 20.8125C11.8616 20.9367 11.8863 21.0597 11.9343 21.1744C11.9822 21.289 12.0525 21.3929 12.141 21.4802C12.2294 21.5674 12.3344 21.6362 12.4496 21.6825C12.5649 21.7288 12.6883 21.7518 12.8125 21.75H21.5625C21.6867 21.7518 21.8101 21.7288 21.9254 21.6825C22.0406 21.6362 22.1456 21.5674 22.234 21.4802C22.3225 21.3929 22.3928 21.289 22.4407 21.1744C22.4887 21.0597 22.5134 20.9367 22.5134 20.8125C22.5134 20.6883 22.4887 20.5653 22.4407 20.4506C22.3928 20.336 22.3225 20.2321 22.234 20.1449C22.1456 20.0576 22.0406 19.9888 21.9254 19.9425C21.8101 19.8962 21.6867 19.8732 21.5625 19.875H12.8125Z" fill="white" fill-opacity="0.5"/>
</svg>
