<svg width="30" height="30" viewBox="0 0 30 30" fill="none" xmlns="http://www.w3.org/2000/svg">
<g clip-path="url(#clip0_512_136)">
<path d="M29.5371 15C29.5371 6.97266 23.0273 0.462891 15 0.462891C6.97266 0.462891 0.462891 6.97266 0.462891 15C0.462891 23.0273 6.97266 29.5371 15 29.5371C23.0273 29.5371 29.5371 23.0273 29.5371 15Z" fill="#FA528C"/>
<path d="M22.1895 14.25L11.9414 7.95117C11.6602 7.78125 11.291 7.76953 11.0039 7.93359C10.7109 8.09765 10.5293 8.4082 10.5293 8.74218V21.2812C10.5293 21.6152 10.7109 21.9258 10.998 22.0898C11.1387 22.166 11.291 22.207 11.4492 22.207C11.6191 22.207 11.7832 22.1602 11.9297 22.0723L22.1777 15.8262C22.4531 15.6621 22.623 15.3574 22.623 15.041C22.6348 14.7187 22.4648 14.4141 22.1895 14.25Z" fill="white"/>
</g>
<defs>
<clipPath id="clip0_512_136">
<rect width="30" height="30" fill="white"/>
</clipPath>
</defs>
</svg>
