<svg width="30" height="31" viewBox="0 0 30 31" fill="none" xmlns="http://www.w3.org/2000/svg">
<path d="M11.875 2.375C9.64254 2.375 7.8125 4.20504 7.8125 6.4375C7.8125 7.2418 8.0536 7.99193 8.46191 8.625H5.3125C4.45 8.625 3.75 9.325 3.75 10.1875V13.9375C3.75 14.8 4.45 15.5 5.3125 15.5H14.0625V8.625H11.875C10.6562 8.625 9.6875 7.65629 9.6875 6.4375C9.6875 5.21871 10.6562 4.25 11.875 4.25C13.0938 4.25 14.0625 5.21871 14.0625 6.4375V8.625H15.9375V6.4375C15.9375 5.21871 16.9062 4.25 18.125 4.25C19.3438 4.25 20.3125 5.21871 20.3125 6.4375C20.3125 7.65629 19.3438 8.625 18.125 8.625H15.9375V15.5H24.6875C25.55 15.5 26.25 14.8 26.25 13.9375V10.1875C26.25 9.325 25.55 8.625 24.6875 8.625H21.5381C21.9464 7.99193 22.1875 7.2418 22.1875 6.4375C22.1875 4.20504 20.3575 2.375 18.125 2.375C16.8448 2.375 15.7463 3.01405 15 3.94849C14.2537 3.01405 13.1552 2.375 11.875 2.375ZM5 17.375V23.9375C5 26.175 6.825 28 9.0625 28H14.0625V17.375H5ZM15.9375 17.375V28H20.9375C23.175 28 25 26.175 25 23.9375V17.375H15.9375Z" fill="url(#paint0_linear_510_197)"/>
<defs>
<linearGradient id="paint0_linear_510_197" x1="1.5" y1="7.10577" x2="26.939" y2="26.3655" gradientUnits="userSpaceOnUse">
<stop stop-color="#FFBE00"/>
<stop offset="0.528601" stop-color="#FF55FD"/>
<stop offset="1" stop-color="#7FBBFF"/>
</linearGradient>
</defs>
</svg>
