<svg width="30" height="31" viewBox="0 0 30 31" fill="none" xmlns="http://www.w3.org/2000/svg">
<path d="M11.875 2.375C9.64254 2.375 7.8125 4.20504 7.8125 6.4375C7.8125 7.2594 8.12129 7.98343 8.54614 8.625H5.3125C4.46025 8.625 3.75 9.33525 3.75 10.1875V14.5625C3.75 15.2939 4.31303 15.8313 5 15.9944V23.9375C5 26.17 6.83004 28 9.0625 28H20.9375C23.17 28 25 26.17 25 23.9375V15.9944C25.687 15.8313 26.25 15.2939 26.25 14.5625V10.1875C26.25 9.33525 25.5397 8.625 24.6875 8.625H21.4539C21.8787 7.98343 22.1875 7.2594 22.1875 6.4375C22.1875 4.20504 20.3575 2.375 18.125 2.375C16.8448 2.375 15.7463 3.01405 15 3.94849C14.2537 3.01405 13.1552 2.375 11.875 2.375ZM11.875 4.25C13.0938 4.25 14.0625 5.21871 14.0625 6.4375V8.625H11.875C10.6562 8.625 9.6875 7.65629 9.6875 6.4375C9.6875 5.21871 10.6562 4.25 11.875 4.25ZM18.125 4.25C19.3438 4.25 20.3125 5.21871 20.3125 6.4375C20.3125 7.65629 19.3438 8.625 18.125 8.625H15.9375V6.4375C15.9375 5.21871 16.9062 4.25 18.125 4.25ZM5.625 10.5H11.875H14.0625V14.25H5.625V10.5ZM15.9375 10.5H18.125H24.375V14.25H15.9375V10.5ZM6.875 16.125H14.0625V26.125H9.0625C7.84371 26.125 6.875 25.1563 6.875 23.9375V16.125ZM15.9375 16.125H23.125V23.9375C23.125 25.1563 22.1563 26.125 20.9375 26.125H15.9375V16.125Z" fill="white" fill-opacity="0.5"/>
</svg>
