<svg width="58" height="55" viewBox="0 0 58 55" fill="none" xmlns="http://www.w3.org/2000/svg">
<path d="M31.8987 5.83333C31.5703 5.83807 31.257 5.97185 31.0264 6.20576C30.7959 6.43966 30.6666 6.7549 30.6666 7.08333V13.571C28.4519 13.818 24.8107 14.4527 21.1451 16.8262C16.9833 19.5209 13.2834 24.4752 13.1976 32.6546C13.1963 32.6609 13.1923 32.6647 13.191 32.6709H13.1943C13.1934 32.7608 13.1666 32.8259 13.1666 32.9167C13.167 33.2266 13.2824 33.5254 13.4906 33.755C13.6988 33.9846 13.9848 34.1287 14.2932 34.1594C14.6017 34.19 14.9105 34.1049 15.1597 33.9207C15.409 33.7365 15.5809 33.4663 15.6422 33.1624C16.6317 28.2156 19.7159 26.0233 23.1341 24.8991C26.019 23.9502 28.8436 23.9499 30.6666 24.0462V30.4167C30.6667 30.6638 30.7401 30.9054 30.8775 31.1109C31.0148 31.3164 31.21 31.4766 31.4384 31.5712C31.6667 31.6657 31.918 31.6905 32.1604 31.6423C32.4029 31.5941 32.6256 31.4752 32.8004 31.3005L44.4671 19.6338C44.7014 19.3994 44.8331 19.0815 44.8331 18.75C44.8331 18.4185 44.7014 18.1006 44.4671 17.8662L32.8004 6.19954C32.6822 6.08132 32.5415 5.98799 32.3867 5.92509C32.2318 5.86219 32.0659 5.83099 31.8987 5.83333ZM33.1666 10.1009L41.8157 18.75L33.1666 27.3991V22.8206C33.1668 22.5093 33.0507 22.2091 32.8412 21.9788C32.6317 21.7486 32.3438 21.6047 32.0338 21.5755C30.2972 21.4129 26.3247 21.218 22.3528 22.5244C20.4972 23.1347 18.6545 24.1619 17.0729 25.6299C18.3388 22.5347 20.2881 20.3607 22.5042 18.9258C26.1492 16.5657 30.3377 15.9921 32.0078 15.8691C32.3227 15.8461 32.6172 15.7047 32.8322 15.4735C33.0471 15.2422 33.1666 14.9381 33.1666 14.6224V10.1009Z" fill="white"/>
<path d="M14.938 54.126C14.5087 54.126 14.0887 54.0933 13.678 54.028C13.2673 53.9627 12.88 53.8647 12.516 53.734C12.152 53.594 11.8253 53.426 11.536 53.23C11.396 53.1273 11.298 53.0107 11.242 52.88C11.1953 52.7493 11.1813 52.6233 11.2 52.502C11.228 52.3713 11.284 52.2593 11.368 52.166C11.452 52.0727 11.5547 52.0167 11.676 51.998C11.7973 51.97 11.9327 52.0073 12.082 52.11C12.502 52.3807 12.9453 52.5813 13.412 52.712C13.8787 52.8333 14.3873 52.894 14.938 52.894C15.7313 52.894 16.3147 52.754 16.688 52.474C17.0707 52.1847 17.262 51.8113 17.262 51.354C17.262 50.9807 17.1267 50.6867 16.856 50.472C16.5853 50.248 16.1327 50.0707 15.498 49.94L14 49.632C13.1133 49.4453 12.4507 49.1373 12.012 48.708C11.5827 48.2787 11.368 47.7 11.368 46.972C11.368 46.5333 11.4567 46.132 11.634 45.768C11.8207 45.404 12.0773 45.0913 12.404 44.83C12.7307 44.5593 13.1227 44.354 13.58 44.214C14.0373 44.074 14.5367 44.004 15.078 44.004C15.6567 44.004 16.198 44.0787 16.702 44.228C17.2153 44.3773 17.6727 44.606 18.074 44.914C18.1953 44.998 18.2747 45.1053 18.312 45.236C18.3587 45.3573 18.368 45.4787 18.34 45.6C18.3213 45.7213 18.27 45.824 18.186 45.908C18.102 45.992 17.9947 46.0433 17.864 46.062C17.7333 46.0713 17.5887 46.0247 17.43 45.922C17.066 45.6793 16.6927 45.5067 16.31 45.404C15.9367 45.292 15.5213 45.236 15.064 45.236C14.6067 45.236 14.2053 45.306 13.86 45.446C13.524 45.586 13.2627 45.782 13.076 46.034C12.8987 46.286 12.81 46.5847 12.81 46.93C12.81 47.322 12.936 47.6347 13.188 47.868C13.44 48.1013 13.86 48.2787 14.448 48.4L15.932 48.708C16.8653 48.904 17.5607 49.2073 18.018 49.618C18.4753 50.0287 18.704 50.5747 18.704 51.256C18.704 51.6947 18.6153 52.0913 18.438 52.446C18.2607 52.7913 18.0087 53.09 17.682 53.342C17.3553 53.594 16.9587 53.79 16.492 53.93C16.0347 54.0607 15.5167 54.126 14.938 54.126ZM20.903 54.098C20.679 54.098 20.5063 54.0373 20.385 53.916C20.2637 53.7853 20.203 53.608 20.203 53.384V44.746C20.203 44.5127 20.2637 44.3353 20.385 44.214C20.5063 44.0927 20.679 44.032 20.903 44.032C21.127 44.032 21.2997 44.0927 21.421 44.214C21.5517 44.3353 21.617 44.5127 21.617 44.746V48.624H21.421C21.6263 48.1013 21.9483 47.7093 22.387 47.448C22.8257 47.1773 23.3297 47.042 23.899 47.042C24.4403 47.042 24.8883 47.1447 25.243 47.35C25.607 47.546 25.8777 47.8493 26.055 48.26C26.2323 48.6613 26.321 49.17 26.321 49.786V53.384C26.321 53.608 26.2603 53.7853 26.139 53.916C26.0177 54.0373 25.845 54.098 25.621 54.098C25.3877 54.098 25.2103 54.0373 25.089 53.916C24.9677 53.7853 24.907 53.608 24.907 53.384V49.87C24.907 49.282 24.7903 48.8527 24.557 48.582C24.333 48.3113 23.9783 48.176 23.493 48.176C22.9237 48.176 22.4663 48.3533 22.121 48.708C21.785 49.0627 21.617 49.5387 21.617 50.136V53.384C21.617 53.86 21.379 54.098 20.903 54.098ZM30.4534 54.126C29.9774 54.126 29.5481 54.0327 29.1654 53.846C28.7921 53.6593 28.4981 53.4073 28.2834 53.09C28.0687 52.7727 27.9614 52.4133 27.9614 52.012C27.9614 51.508 28.0874 51.1113 28.3394 50.822C28.6007 50.5233 29.0254 50.3133 29.6134 50.192C30.2107 50.0613 31.0134 49.996 32.0214 49.996H32.6794V50.864H32.0354C31.3634 50.864 30.8314 50.8967 30.4394 50.962C30.0474 51.0273 29.7674 51.1393 29.5994 51.298C29.4407 51.4473 29.3614 51.6573 29.3614 51.928C29.3614 52.2827 29.4827 52.572 29.7254 52.796C29.9681 53.0107 30.3041 53.118 30.7334 53.118C31.0787 53.118 31.3821 53.0387 31.6434 52.88C31.9047 52.712 32.1101 52.488 32.2594 52.208C32.4181 51.928 32.4974 51.606 32.4974 51.242V49.632C32.4974 49.1 32.3854 48.7173 32.1614 48.484C31.9374 48.2507 31.5687 48.134 31.0554 48.134C30.7567 48.134 30.4441 48.1713 30.1174 48.246C29.8001 48.3207 29.4687 48.4467 29.1234 48.624C28.9647 48.6987 28.8294 48.722 28.7174 48.694C28.6054 48.666 28.5167 48.6053 28.4514 48.512C28.3861 48.4093 28.3487 48.302 28.3394 48.19C28.3394 48.0687 28.3674 47.952 28.4234 47.84C28.4887 47.728 28.5961 47.644 28.7454 47.588C29.1561 47.392 29.5621 47.252 29.9634 47.168C30.3647 47.084 30.7427 47.042 31.0974 47.042C31.7227 47.042 32.2361 47.14 32.6374 47.336C33.0481 47.532 33.3514 47.8307 33.5474 48.232C33.7434 48.6333 33.8414 49.1513 33.8414 49.786V53.384C33.8414 53.608 33.7854 53.7853 33.6734 53.916C33.5614 54.0373 33.3981 54.098 33.1834 54.098C32.9781 54.098 32.8147 54.0373 32.6934 53.916C32.5721 53.7853 32.5114 53.608 32.5114 53.384V52.474H32.6374C32.5627 52.8193 32.4227 53.118 32.2174 53.37C32.0214 53.6127 31.7741 53.7993 31.4754 53.93C31.1767 54.0607 30.8361 54.126 30.4534 54.126ZM36.5029 54.098C36.2696 54.098 36.0923 54.0373 35.9709 53.916C35.8496 53.7853 35.7889 53.608 35.7889 53.384V47.784C35.7889 47.5507 35.8496 47.3733 35.9709 47.252C36.0923 47.1307 36.2603 47.07 36.4749 47.07C36.6989 47.07 36.8669 47.1307 36.9789 47.252C37.1003 47.3733 37.1609 47.5507 37.1609 47.784V48.806H37.0209C37.1703 48.246 37.4456 47.8213 37.8469 47.532C38.2483 47.2427 38.7616 47.0747 39.3869 47.028C39.5549 47.0187 39.6856 47.0607 39.7789 47.154C39.8816 47.2473 39.9376 47.392 39.9469 47.588C39.9656 47.784 39.9236 47.9427 39.8209 48.064C39.7183 48.176 39.5596 48.2413 39.3449 48.26L39.0789 48.288C38.4723 48.344 38.0103 48.5353 37.6929 48.862C37.3756 49.1887 37.2169 49.6367 37.2169 50.206V53.384C37.2169 53.608 37.1563 53.7853 37.0349 53.916C36.9229 54.0373 36.7456 54.098 36.5029 54.098ZM44.1219 54.126C43.3752 54.126 42.7312 53.986 42.1899 53.706C41.6579 53.4167 41.2425 53.0107 40.9439 52.488C40.6545 51.956 40.5099 51.326 40.5099 50.598C40.5099 49.8887 40.6545 49.268 40.9439 48.736C41.2332 48.204 41.6299 47.7887 42.1339 47.49C42.6379 47.1913 43.2119 47.042 43.8559 47.042C44.3319 47.042 44.7565 47.1213 45.1299 47.28C45.5032 47.4293 45.8205 47.6533 46.0819 47.952C46.3525 48.2413 46.5532 48.596 46.6839 49.016C46.8239 49.436 46.8939 49.9073 46.8939 50.43C46.8939 50.5887 46.8472 50.71 46.7539 50.794C46.6605 50.8687 46.5205 50.906 46.3339 50.906H41.6299V50.038H45.9419L45.7039 50.234C45.7039 49.7673 45.6339 49.3707 45.4939 49.044C45.3632 48.7173 45.1625 48.47 44.8919 48.302C44.6305 48.1247 44.3039 48.036 43.9119 48.036C43.4732 48.036 43.0999 48.1387 42.7919 48.344C42.4932 48.5493 42.2645 48.834 42.1059 49.198C41.9472 49.562 41.8679 49.9867 41.8679 50.472V50.556C41.8679 51.3773 42.0592 51.998 42.4419 52.418C42.8339 52.8287 43.3985 53.034 44.1359 53.034C44.4159 53.034 44.7099 52.9967 45.0179 52.922C45.3352 52.8473 45.6339 52.7213 45.9139 52.544C46.0725 52.4507 46.2125 52.4087 46.3339 52.418C46.4645 52.4273 46.5672 52.4693 46.6419 52.544C46.7259 52.6187 46.7772 52.712 46.7959 52.824C46.8145 52.936 46.7959 53.0527 46.7399 53.174C46.6839 53.286 46.5859 53.3887 46.4459 53.482C46.1285 53.6967 45.7599 53.86 45.3399 53.972C44.9199 54.0747 44.5139 54.126 44.1219 54.126Z" fill="white"/>
</svg>
