<svg width="40" height="40" viewBox="0 0 40 40" fill="none" xmlns="http://www.w3.org/2000/svg">
<path d="M33.3367 34.9742L6.6925 35C5.77667 35.0008 5.02667 34.2525 5.02583 33.3367L5 6.6925C4.99917 5.77667 5.7475 5.02667 6.66333 5.02583L33.3075 5C34.2233 4.99917 34.9733 5.7475 34.9742 6.66333L35 33.3075C35.0008 34.2233 34.2525 34.9733 33.3367 34.9742Z" fill="url(#paint0_linear_189_1118)"/>
<path fill-rule="evenodd" clip-rule="evenodd" d="M24.34 17.1725C25.6533 18.1108 27.2625 18.6625 29 18.6625V15.32C28.6708 15.32 28.3433 15.2858 28.0217 15.2175V17.8483C26.2842 17.8483 24.6758 17.2958 23.3617 16.3583V23.1783C23.3617 26.59 20.5942 29.3558 17.1808 29.3558C15.9075 29.3558 14.7233 28.9708 13.74 28.3108C14.8625 29.4575 16.4275 30.1692 18.1592 30.1692C21.5725 30.1692 24.34 27.4033 24.34 23.9917V17.1725ZM25.5475 13.8008C24.8767 13.0683 24.4358 12.1208 24.34 11.0733V10.6433H23.4125C23.6458 11.9742 24.4425 13.1117 25.5475 13.8008ZM15.8992 25.6933C15.5242 25.2017 15.3217 24.6008 15.3225 23.9825C15.3225 22.4217 16.5883 21.1567 18.15 21.1567C18.4408 21.1567 18.73 21.2008 19.0075 21.2892V17.8725C18.6833 17.8283 18.3567 17.8092 18.0292 17.8158V20.475C17.7517 20.3867 17.4625 20.3425 17.1708 20.3425C15.6092 20.3425 14.3433 21.6075 14.3433 23.1683C14.3442 24.2725 14.9767 25.2283 15.8992 25.6933Z" fill="#EC407A"/>
<path fill-rule="evenodd" clip-rule="evenodd" d="M23.3616 16.3583C24.675 17.2967 26.2841 17.8483 28.0216 17.8483V15.2175C27.0516 15.0108 26.1933 14.5042 25.5475 13.8C24.4425 13.1108 23.6466 11.9742 23.4133 10.6433H20.9775V23.9917C20.9716 25.5475 19.7083 26.8075 18.15 26.8075C17.2316 26.8075 16.4158 26.37 15.8991 25.6925C14.9766 25.2275 14.3441 24.2717 14.3441 23.1683C14.3441 21.6075 15.61 20.3425 17.1716 20.3425C17.4708 20.3425 17.7591 20.3892 18.03 20.475V17.8167C14.6766 17.8858 11.98 20.6242 11.98 23.9925C11.98 25.6742 12.6516 27.1983 13.7416 28.3117C14.725 28.9717 15.9091 29.3567 17.1825 29.3567C20.5958 29.3567 23.3633 26.5908 23.3633 23.1792L23.3616 16.3583Z" fill="white"/>
<path fill-rule="evenodd" clip-rule="evenodd" d="M28.0217 15.2183V14.5067C27.1467 14.5083 26.29 14.2633 25.5475 13.8C26.2042 14.5192 27.0692 15.015 28.0217 15.2183ZM23.4125 10.6433C23.39 10.5158 23.3733 10.3883 23.3617 10.2592V9.82916H19.9983V23.1783C19.9933 24.7342 18.7292 25.9942 17.1708 25.9942C16.7133 25.9942 16.2817 25.8858 15.8992 25.6925C16.4158 26.37 17.2317 26.8075 18.15 26.8075C19.7083 26.8075 20.9717 25.5475 20.9775 23.9917V10.6433H23.4125ZM18.0292 17.8167V17.0592C17.7483 17.0208 17.465 17.0017 17.1808 17.0017C13.7667 17.0017 11 19.7675 11 23.1792C11 25.3183 12.0875 27.2033 13.74 28.3117C12.65 27.1983 11.9783 25.6742 11.9783 23.9925C11.9783 20.6242 14.6758 17.8858 18.0292 17.8167Z" fill="#81D4FA"/>
<defs>
<linearGradient id="paint0_linear_189_1118" x1="19.9808" y1="5.1325" x2="19.9808" y2="35.0383" gradientUnits="userSpaceOnUse">
<stop stop-color="#4C4C4C"/>
<stop offset="1" stop-color="#343434"/>
</linearGradient>
</defs>
</svg>
