<svg width="31" height="31" viewBox="0 0 31 31" fill="none" xmlns="http://www.w3.org/2000/svg">
<path d="M15.5 3C8.6075 3 3 8.6075 3 15.5C3 22.3925 8.6075 28 15.5 28C22.3925 28 28 22.3925 28 15.5C28 8.6075 22.3925 3 15.5 3ZM15.5 8.625C17.2256 8.625 18.625 10.0244 18.625 11.75C18.625 13.4756 17.2256 14.875 15.5 14.875C13.7744 14.875 12.375 13.4756 12.375 11.75C12.375 10.0244 13.7744 8.625 15.5 8.625ZM21.125 18.9613C21.125 20.7481 18.8456 22.375 15.5 22.375C12.1544 22.375 9.875 20.7481 9.875 18.9613V18.5387C9.875 17.8962 10.3962 17.375 11.0387 17.375H19.9613C20.6038 17.375 21.125 17.8962 21.125 18.5387V18.9613Z" fill="url(#paint0_linear_510_172)"/>
<defs>
<linearGradient id="paint0_linear_510_172" x1="0.5" y1="7.61538" x2="26.005" y2="29.6069" gradientUnits="userSpaceOnUse">
<stop stop-color="#FFBE00"/>
<stop offset="0.528601" stop-color="#FF55FD"/>
<stop offset="1" stop-color="#7FBBFF"/>
</linearGradient>
</defs>
</svg>
