<svg width="31" height="31" viewBox="0 0 31 31" fill="none" xmlns="http://www.w3.org/2000/svg">
<path d="M15.5 3C8.60754 3 3 8.60755 3 15.5C3 22.3925 8.60754 28 15.5 28C22.3925 28 28 22.3925 28 15.5C28 8.60755 22.3925 3 15.5 3ZM15.5 4.875C21.3791 4.875 26.125 9.62087 26.125 15.5C26.125 21.3791 21.3791 26.125 15.5 26.125C9.62087 26.125 4.875 21.3791 4.875 15.5C4.875 9.62087 9.62087 4.875 15.5 4.875ZM15.5 8C14.3281 8 13.3305 8.47321 12.6899 9.19385C12.0494 9.91449 11.75 10.8385 11.75 11.75C11.75 12.6615 12.0494 13.5855 12.6899 14.3062C13.3305 15.0268 14.3281 15.5 15.5 15.5C16.6719 15.5 17.6695 15.0268 18.3101 14.3062C18.9506 13.5855 19.25 12.6615 19.25 11.75C19.25 10.8385 18.9506 9.91449 18.3101 9.19385C17.6695 8.47321 16.6719 8 15.5 8ZM15.5 9.875C16.2031 9.875 16.6118 10.1049 16.9087 10.439C17.2056 10.773 17.375 11.2552 17.375 11.75C17.375 12.2448 17.2056 12.727 16.9087 13.061C16.6118 13.3951 16.2031 13.625 15.5 13.625C14.7969 13.625 14.3882 13.3951 14.0913 13.061C13.7944 12.727 13.625 12.2448 13.625 11.75C13.625 11.2552 13.7944 10.773 14.0913 10.439C14.3882 10.1049 14.7969 9.875 15.5 9.875ZM11.2874 16.75C10.1739 16.75 9.25 17.6732 9.25 18.7874V19.4636C9.25 20.7061 10.0353 21.7859 11.1543 22.4995C12.2733 23.2131 13.7683 23.6262 15.5 23.6262C17.2317 23.6262 18.7267 23.2131 19.8457 22.4995C20.9647 21.7859 21.75 20.7061 21.75 19.4636V18.7874C21.75 17.6739 20.8268 16.75 19.7126 16.75H11.2874ZM11.2874 18.625H19.7126C19.8135 18.625 19.875 18.687 19.875 18.7874V19.4636C19.875 19.9086 19.5848 20.442 18.8374 20.9187C18.09 21.3954 16.9277 21.7512 15.5 21.7512C14.0723 21.7512 12.91 21.3954 12.1626 20.9187C11.4152 20.442 11.125 19.9086 11.125 19.4636V18.7874C11.125 18.6865 11.187 18.625 11.2874 18.625Z" fill="white" fill-opacity="0.5"/>
</svg>
