<svg width="38" height="28" viewBox="0 0 38 28" fill="none" xmlns="http://www.w3.org/2000/svg">
<path d="M36.5101 22.8C36.1442 24.6667 34.5901 26.0892 32.6701 26.3558C29.6526 26.8 24.6234 27.3333 18.9542 27.3333C13.3767 27.3333 8.34758 26.8 5.23841 26.3558C3.31841 26.0892 1.76341 24.6667 1.39841 22.8C1.03258 20.7558 0.666748 17.7333 0.666748 14C0.666748 10.2667 1.03258 7.24416 1.39841 5.19999C1.76425 3.33332 3.31841 1.91082 5.23841 1.64416C8.25592 1.19999 13.2851 0.666656 18.9542 0.666656C24.6234 0.666656 29.5609 1.19999 32.6701 1.64416C34.5901 1.91082 36.1451 3.33332 36.5101 5.19999C36.8759 7.24416 37.3334 10.2667 37.3334 14C37.2417 17.7333 36.8759 20.7558 36.5101 22.8Z" fill="url(#paint0_linear_189_1102)"/>
<defs>
<linearGradient id="paint0_linear_189_1102" x1="7.18008" y1="2.22582" x2="33.3717" y2="28.4175" gradientUnits="userSpaceOnUse">
<stop stop-color="#F44F5A"/>
<stop offset="0.443" stop-color="#EE3D4A"/>
<stop offset="1" stop-color="#E52030"/>
</linearGradient>
</defs>
</svg>
