<svg width="40" height="40" viewBox="0 0 40 40" fill="none" xmlns="http://www.w3.org/2000/svg">
<path d="M37.5101 28.8C37.1442 30.6667 35.5901 32.0892 33.6701 32.3558C30.6526 32.8 25.6234 33.3333 19.9542 33.3333C14.3767 33.3333 9.34758 32.8 6.23841 32.3558C4.31841 32.0892 2.76341 30.6667 2.39841 28.8C2.03258 26.7558 1.66675 23.7333 1.66675 20C1.66675 16.2667 2.03258 13.2442 2.39841 11.2C2.76425 9.33332 4.31841 7.91082 6.23841 7.64416C9.25592 7.19999 14.2851 6.66666 19.9542 6.66666C25.6234 6.66666 30.5609 7.19999 33.6701 7.64416C35.5901 7.91082 37.1451 9.33332 37.5101 11.2C37.8759 13.2442 38.3334 16.2667 38.3334 20C38.2417 23.7333 37.8759 26.7558 37.5101 28.8Z" fill="url(#paint0_linear_189_1101)"/>
<path opacity="0.05" d="M26.96 18.7L17.43 12.3467C16.9492 12.0258 16.335 11.9958 15.8258 12.2692C15.3167 12.5417 15 13.0692 15 13.6467V26.3533C15 26.9308 15.3167 27.4592 15.8258 27.7317C16.0575 27.8558 16.31 27.9167 16.5625 27.9167C16.8658 27.9167 17.1675 27.8283 17.4292 27.6542L26.9592 21.3008C27.395 21.01 27.655 20.5242 27.655 20.0008C27.6558 19.4767 27.395 18.9908 26.96 18.7Z" fill="black"/>
<path opacity="0.07" d="M17.2342 12.6975L26.2259 18.6925C26.8001 19.105 27.1867 19.4742 27.1867 19.9533C27.1867 20.4325 27.0001 20.7667 26.5909 21.065C26.2817 21.29 17.3867 27.2017 17.3867 27.2017C16.6359 27.705 15.4167 27.5983 15.4167 25.9525V13.9533C15.4167 12.2825 16.7367 12.3658 17.2342 12.6975Z" fill="black"/>
<path d="M15.8333 26.3067V13.6942C15.8333 13.075 16.5233 12.705 17.0391 13.0492L26.4991 19.3558C26.9599 19.6625 26.9599 20.3392 26.4991 20.6467L17.0391 26.9533C16.5233 27.2958 15.8333 26.9267 15.8333 26.3067Z" fill="white"/>
<defs>
<linearGradient id="paint0_linear_189_1101" x1="8.18008" y1="8.22582" x2="34.3717" y2="34.4175" gradientUnits="userSpaceOnUse">
<stop stop-color="#F44F5A"/>
<stop offset="0.443" stop-color="#EE3D4A"/>
<stop offset="1" stop-color="#E52030"/>
</linearGradient>
</defs>
</svg>
